<svg id="Capa_1" data-name="Capa 1" xmlns="http://www.w3.org/2000/svg" viewBox="0 0 812 812"><defs><style>.cls-1{fill:#fff;}</style></defs><title>Logo_white</title><path class="cls-1" d="M406,60c191.06-.18,346.09,154.56,346.27,345.61A346,346,0,0,1,650.69,650.8c-135.08,135.32-354.29,135.52-489.61.43s-135.52-354.29-.44-489.61A346.19,346.19,0,0,1,406,60m0-60C181.79,0,0,181.8,0,406s181.8,406,406,406S812,630.2,812,406,630.19,0,406,0Z" transform="translate(0.01 0)"/><path class="cls-1" d="M527.7,365.7a15.2,15.2,0,0,0,0-30.4H495.5a15.2,15.2,0,0,0,0,30.4ZM228.3,420.4a15.19,15.19,0,0,0,15.18,15.2H502.2a15.2,15.2,0,0,0,0-30.4H243.5a15.19,15.19,0,0,0-15.2,15.18v0Zm2.9-152.5h52l21.2,67.3H284a15.2,15.2,0,0,0,0,30.4H450.09a15.2,15.2,0,0,0,0-30.4h-114l-27.4-87h0a15.17,15.17,0,0,0-14.5-10.7h-63.1a15.2,15.2,0,0,0,.1,30.4h0Zm405.3,10a14.76,14.76,0,0,0-7.4-1.4l-198.7.2a15.2,15.2,0,0,0,0,30.4l175.6-.2L525.3,477.8H295.8a15.2,15.2,0,0,0,0,30.4H535a15.17,15.17,0,0,0,14.2-9.7l94.6-200.4A15.21,15.21,0,0,0,636.5,277.9Zm-386,199.8H218.3a15.2,15.2,0,0,0,0,30.4h32.2a15.2,15.2,0,0,0,0-30.4ZM469,524.1a25,25,0,1,0,25,25h0A25,25,0,0,0,469,524.1Zm-82,0a25,25,0,1,0,25,25h0A25,25,0,0,0,387,524.1Z" transform="translate(0.01 0)"/></svg>