<svg id="Capa_1" data-name="Capa 1" xmlns="http://www.w3.org/2000/svg" viewBox="0 0 812 812"><title>Logo1</title><path d="M414,69.51a345.94,345.94,0,0,1,244.7,590.8A346.21,346.21,0,1,1,414,69.51m0-60c-224.2,0-406,181.8-406,406s181.8,406,406,406,406-181.8,406-406-181.8-406-406-406Z" transform="translate(-8.01 -9.51)"/><path d="M535.71,375.21a15.2,15.2,0,0,0,0-30.4h-32.2a15.2,15.2,0,0,0,0,30.4Zm-299.4,54.7a15.19,15.19,0,0,0,15.2,15.2h258.7a15.2,15.2,0,0,0,0-30.4H251.51A15.19,15.19,0,0,0,236.31,429.91Zm2.9-152.5h52l21.2,67.3H292a15.2,15.2,0,1,0,0,30.4h166.1a15.2,15.2,0,0,0,0-30.4h-114l-27.4-87h0a15.18,15.18,0,0,0-14.5-10.7h-63.1a15.2,15.2,0,1,0,.1,30.4Zm405.3,10a14.83,14.83,0,0,0-7.4-1.4l-198.7.2a15.2,15.2,0,0,0,0,30.4l175.6-.2-80.7,170.9H303.81a15.2,15.2,0,1,0,0,30.4H543a15.16,15.16,0,0,0,14.2-9.7l94.6-200.4A15.21,15.21,0,0,0,644.51,287.41Zm-386,199.8h-32.2a15.2,15.2,0,1,0,0,30.4h32.2a15.2,15.2,0,0,0,0-30.4ZM477,533.61a25,25,0,1,0,25,25A25,25,0,0,0,477,533.61Zm-82,0a25,25,0,1,0,25,25A25,25,0,0,0,395,533.61Z" transform="translate(-8.01 -9.51)"/></svg>